<?xml version="1.0" standalone="no"?>
<!DOCTYPE svg PUBLIC "-//W3C//DTD SVG 20010904//EN"
 "http://www.w3.org/TR/2001/REC-SVG-20010904/DTD/svg10.dtd">
<svg version="1.0" xmlns="http://www.w3.org/2000/svg"
 width="1024.000000pt" height="1024.000000pt" viewBox="0 0 1024.000000 1024.000000"
 preserveAspectRatio="xMidYMid meet">
<metadata>
Created by potrace 1.11, written by Peter Selinger 2001-2013
</metadata>
<g transform="translate(0.000000,1024.000000) scale(0.100000,-0.100000)"
fill="#000000" stroke="none">
<path d="M1333 6858 c1 -1805 6 -3299 9 -3318 4 -19 9 -60 13 -91 3 -31 7 -65
9 -75 2 -11 7 -41 10 -69 4 -27 9 -57 11 -65 2 -8 6 -32 10 -53 46 -315 232
-832 412 -1147 121 -212 216 -351 367 -540 87 -109 116 -140 271 -295 142
-142 166 -164 265 -245 30 -25 57 -47 60 -50 23 -24 362 -260 374 -260 3 0 36
-19 73 -42 154 -94 546 -274 658 -302 6 -2 17 -6 25 -9 15 -6 146 -45 245 -73
59 -16 277 -64 320 -69 17 -2 59 -9 95 -14 192 -30 277 -36 535 -36 328 0 468
13 770 71 201 38 516 134 692 211 21 9 40 17 43 18 30 7 250 116 360 178 206
116 399 251 585 406 101 85 358 338 425 420 25 29 50 59 55 65 6 6 26 31 45
56 19 25 37 47 41 50 18 15 191 272 252 375 266 451 452 1001 502 1481 2 21 7
73 11 114 5 41 8 188 9 325 0 220 -5 322 -20 443 -10 81 -26 191 -30 213 -3
13 -12 58 -20 99 -26 132 -43 200 -86 345 -43 141 -108 319 -156 425 -20 45
-131 270 -143 290 -5 8 -25 44 -46 80 -62 110 -193 309 -246 375 -5 6 -48 60
-96 120 -88 111 -372 404 -471 486 -29 24 -59 49 -65 54 -28 27 -220 168 -301
222 -228 151 -472 279 -715 374 -91 35 -313 109 -330 109 -13 0 -15 -192 -14
-1873 1 -1525 -1 -1887 -12 -1952 -84 -500 -506 -865 -1012 -874 -423 -8 -811
243 -974 629 -50 119 -58 146 -78 270 -5 30 -9 1186 -10 2590 -1 1394 -3 2553
-6 2575 -22 181 -123 381 -267 527 -94 96 -120 117 -233 193 -283 190 -683
336 -1194 434 -109 21 -131 25 -215 37 -27 3 -59 8 -70 10 -11 2 -44 6 -73 10
-29 3 -61 7 -70 9 -9 1 -51 6 -92 10 -41 3 -86 8 -100 10 -32 5 -131 12 -288
20 l-122 7 3 -3284z"/>
</g>
</svg>
